<mxfile host="app.diagrams.net" modified="2021-01-23T14:20:02.192Z" agent="5.0 (Windows NT 10.0; Win64; x64) AppleWebKit/537.36 (KHTML, like Gecko) Chrome/87.0.4280.141 Safari/537.36 OPR/73.0.3856.344" etag="4Np8ENFZ8yCbKGjrI667" version="14.2.7" type="github">
  <diagram id="C5RBs43oDa-KdzZeNtuy" name="Page-1">
    <mxGraphModel dx="2022" dy="1124" grid="1" gridSize="10" guides="1" tooltips="1" connect="1" arrows="1" fold="1" page="1" pageScale="1" pageWidth="827" pageHeight="1169" math="0" shadow="0">
      <root>
        <mxCell id="WIyWlLk6GJQsqaUBKTNV-0" />
        <mxCell id="WIyWlLk6GJQsqaUBKTNV-1" parent="WIyWlLk6GJQsqaUBKTNV-0" />
        <mxCell id="cMpApmtrPq95qFK_FHQi-10" style="edgeStyle=orthogonalEdgeStyle;rounded=0;orthogonalLoop=1;jettySize=auto;html=1;" edge="1" parent="WIyWlLk6GJQsqaUBKTNV-1" source="cMpApmtrPq95qFK_FHQi-0" target="cMpApmtrPq95qFK_FHQi-8">
          <mxGeometry relative="1" as="geometry" />
        </mxCell>
        <mxCell id="cMpApmtrPq95qFK_FHQi-0" value="Начало" style="ellipse;whiteSpace=wrap;html=1;" vertex="1" parent="WIyWlLk6GJQsqaUBKTNV-1">
          <mxGeometry x="298" y="70" width="116" height="50" as="geometry" />
        </mxCell>
        <mxCell id="cMpApmtrPq95qFK_FHQi-1" value="Конецу" style="ellipse;whiteSpace=wrap;html=1;" vertex="1" parent="WIyWlLk6GJQsqaUBKTNV-1">
          <mxGeometry x="296" y="600" width="116" height="60" as="geometry" />
        </mxCell>
        <mxCell id="cMpApmtrPq95qFK_FHQi-11" style="edgeStyle=orthogonalEdgeStyle;rounded=0;orthogonalLoop=1;jettySize=auto;html=1;" edge="1" parent="WIyWlLk6GJQsqaUBKTNV-1" source="cMpApmtrPq95qFK_FHQi-8" target="cMpApmtrPq95qFK_FHQi-9">
          <mxGeometry relative="1" as="geometry" />
        </mxCell>
        <mxCell id="cMpApmtrPq95qFK_FHQi-8" value="Вывод&lt;br&gt;Введите год" style="shape=parallelogram;perimeter=parallelogramPerimeter;whiteSpace=wrap;html=1;fixedSize=1;" vertex="1" parent="WIyWlLk6GJQsqaUBKTNV-1">
          <mxGeometry x="296" y="160" width="120" height="60" as="geometry" />
        </mxCell>
        <mxCell id="cMpApmtrPq95qFK_FHQi-12" style="edgeStyle=orthogonalEdgeStyle;rounded=0;orthogonalLoop=1;jettySize=auto;html=1;" edge="1" parent="WIyWlLk6GJQsqaUBKTNV-1" source="cMpApmtrPq95qFK_FHQi-9" target="cMpApmtrPq95qFK_FHQi-7">
          <mxGeometry relative="1" as="geometry" />
        </mxCell>
        <mxCell id="cMpApmtrPq95qFK_FHQi-9" value="Ввод&lt;br&gt;year" style="shape=parallelogram;perimeter=parallelogramPerimeter;whiteSpace=wrap;html=1;fixedSize=1;" vertex="1" parent="WIyWlLk6GJQsqaUBKTNV-1">
          <mxGeometry x="296" y="280" width="120" height="60" as="geometry" />
        </mxCell>
        <mxCell id="cMpApmtrPq95qFK_FHQi-16" style="edgeStyle=orthogonalEdgeStyle;rounded=0;orthogonalLoop=1;jettySize=auto;html=1;" edge="1" parent="WIyWlLk6GJQsqaUBKTNV-1" source="cMpApmtrPq95qFK_FHQi-13" target="cMpApmtrPq95qFK_FHQi-1">
          <mxGeometry relative="1" as="geometry">
            <Array as="points">
              <mxPoint x="500" y="570" />
              <mxPoint x="354" y="570" />
            </Array>
          </mxGeometry>
        </mxCell>
        <mxCell id="cMpApmtrPq95qFK_FHQi-13" value="Вывод&lt;br&gt;Год високосный" style="shape=parallelogram;perimeter=parallelogramPerimeter;whiteSpace=wrap;html=1;fixedSize=1;" vertex="1" parent="WIyWlLk6GJQsqaUBKTNV-1">
          <mxGeometry x="440" y="480" width="120" height="60" as="geometry" />
        </mxCell>
        <mxCell id="cMpApmtrPq95qFK_FHQi-15" style="edgeStyle=orthogonalEdgeStyle;rounded=0;orthogonalLoop=1;jettySize=auto;html=1;" edge="1" parent="WIyWlLk6GJQsqaUBKTNV-1" source="cMpApmtrPq95qFK_FHQi-14" target="cMpApmtrPq95qFK_FHQi-1">
          <mxGeometry relative="1" as="geometry">
            <Array as="points">
              <mxPoint x="210" y="570" />
              <mxPoint x="354" y="570" />
            </Array>
          </mxGeometry>
        </mxCell>
        <mxCell id="cMpApmtrPq95qFK_FHQi-14" value="Вывод&lt;br&gt;Год не високосный" style="shape=parallelogram;perimeter=parallelogramPerimeter;whiteSpace=wrap;html=1;fixedSize=1;" vertex="1" parent="WIyWlLk6GJQsqaUBKTNV-1">
          <mxGeometry x="150" y="480" width="120" height="60" as="geometry" />
        </mxCell>
        <mxCell id="cMpApmtrPq95qFK_FHQi-3" style="edgeStyle=orthogonalEdgeStyle;rounded=0;orthogonalLoop=1;jettySize=auto;html=1;" edge="1" parent="WIyWlLk6GJQsqaUBKTNV-1" source="cMpApmtrPq95qFK_FHQi-7" target="cMpApmtrPq95qFK_FHQi-13">
          <mxGeometry x="236.00000000000023" y="400" as="geometry">
            <mxPoint x="476.0000000000002" y="435" as="targetPoint" />
          </mxGeometry>
        </mxCell>
        <mxCell id="cMpApmtrPq95qFK_FHQi-4" value="Да" style="edgeLabel;html=1;align=center;verticalAlign=middle;resizable=0;points=[];" vertex="1" connectable="0" parent="cMpApmtrPq95qFK_FHQi-3">
          <mxGeometry x="-0.3303" y="-3" relative="1" as="geometry">
            <mxPoint y="-3" as="offset" />
          </mxGeometry>
        </mxCell>
        <mxCell id="cMpApmtrPq95qFK_FHQi-5" style="edgeStyle=orthogonalEdgeStyle;rounded=0;orthogonalLoop=1;jettySize=auto;html=1;" edge="1" parent="WIyWlLk6GJQsqaUBKTNV-1" source="cMpApmtrPq95qFK_FHQi-7" target="cMpApmtrPq95qFK_FHQi-14">
          <mxGeometry x="236.00000000000023" y="400" as="geometry">
            <mxPoint x="236.00000000000023" y="435" as="targetPoint" />
          </mxGeometry>
        </mxCell>
        <mxCell id="cMpApmtrPq95qFK_FHQi-6" value="Нет" style="edgeLabel;html=1;align=center;verticalAlign=middle;resizable=0;points=[];" vertex="1" connectable="0" parent="cMpApmtrPq95qFK_FHQi-5">
          <mxGeometry x="-0.2786" relative="1" as="geometry">
            <mxPoint x="-2.0700000000000003" as="offset" />
          </mxGeometry>
        </mxCell>
        <mxCell id="cMpApmtrPq95qFK_FHQi-7" value="&lt;pre style=&quot;background-color: #282a36 ; color: #f8f8f2 ; font-family: &amp;quot;jetbrains mono&amp;quot; , monospace ; font-size: 9 8pt&quot;&gt;year &lt;span style=&quot;color: #f998cc&quot;&gt;% &lt;/span&gt;&lt;span style=&quot;color: #bd93f9&quot;&gt;4&lt;/span&gt;&lt;/pre&gt;" style="rhombus;whiteSpace=wrap;html=1;" vertex="1" parent="WIyWlLk6GJQsqaUBKTNV-1">
          <mxGeometry x="296.0000000000002" y="400" width="120" height="70" as="geometry" />
        </mxCell>
      </root>
    </mxGraphModel>
  </diagram>
</mxfile>
